# xmcd
#
# Track frame offsets:
#	150
#	16232
#	27036
#	47896
#	57467
#	69280
#	82882
#	96961
#	108453
#	120246
#	130623
#	147207
#	161787
#	172752
#	183476
#	196258
#	212548
#	222948
#	238107
#	254274
#	275292
#
# Disc length: 3948 seconds
#
# Revision: 0
# Processed by: cddbd v1.5.2PL0 Copyright (c) Steve Scherf et al.
# Submitted via: EasyCDDAExtractor 16.0.6.1
#
DISCID=1c0f6a15
DTITLE=Τερλέγκας Βασίλης - Δημοτική ανθολογία 1-Β. Τερλέγκας
DYEAR=2000
DGENRE=Παραδοσιακή
TTITLE0=Δυό μαύρα μάτια αγαπώ
TTITLE1=Τ' έχεις Ρήνα μ' κι αρρωσταίνεις
TTITLE2=Στης Αρκααδίας τον πλάτανο
TTITLE3=Όλες οι παπαρούνες
TTITLE4=Αγάπη μου ταξίδεψες
TTITLE5=Κρατήσου Γιώργο να χαρείς
TTITLE6=Τα γιούλια
TTITLE7=Λουλούδι τι μαράθηκες
TTITLE8=Τώρα το βράδυ, βράδυ
TTITLE9=Η Σουλιώτισσα
TTITLE10=Κίνησαν τα καράβια
TTITLE11=Αριστείδης
TTITLE12=Όλα τα πουλάκια ζυγά-ζυγά
TTITLE13=Το κλήμα που 'χεις Μάρω μου στην αυλή
TTITLE14=Όλες οι μελαχροινές
TTITLE15=Κόφ' την Ελένη την ελιά
TTITLE16=Στην βρύση, στην κρυόβρυση
TTITLE17=Κάτω στην Αλεξάνδρεια
TTITLE18=Στα Ναυπλιού το Παλαμίδι
TTITLE19=Το πονεμένο στήθος μου
TTITLE20=Δώδεκα ευζωνάκια
EXTD=
EXTT0=
EXTT1=
EXTT2=
EXTT3=
EXTT4=
EXTT5=
EXTT6=
EXTT7=
EXTT8=
EXTT9=
EXTT10=
EXTT11=
EXTT12=
EXTT13=
EXTT14=
EXTT15=
EXTT16=
EXTT17=
EXTT18=
EXTT19=
EXTT20=
PLAYORDER=
